<mxfile host="app.diagrams.net" modified="2023-04-30T08:25:16.793Z" agent="Mozilla/5.0 (Windows NT 10.0; Win64; x64) AppleWebKit/537.36 (KHTML, like Gecko) Chrome/112.0.0.0 Safari/537.36" etag="cPk9ZkDaoBbdps4JNmLC" version="21.2.3" type="github">
  <diagram name="Page-1" id="3e8102d1-ef87-2e61-34e1-82d9a586fe2e">
    <mxGraphModel dx="1434" dy="1589" grid="1" gridSize="10" guides="1" tooltips="1" connect="1" arrows="1" fold="1" page="1" pageScale="1" pageWidth="1100" pageHeight="850" background="none" math="0" shadow="0">
      <root>
        <mxCell id="0" />
        <mxCell id="1" parent="0" />
        <mxCell id="5Ia9VmR4x7UAcifV3asM-1" value="&lt;font style=&quot;font-size: 16px;&quot;&gt;&lt;b&gt;1x1, 2D Conv&lt;/b&gt;&lt;/font&gt;" style="rounded=1;whiteSpace=wrap;html=1;fontColor=#0C50ED;" vertex="1" parent="1">
          <mxGeometry x="500" y="60" width="120" height="60" as="geometry" />
        </mxCell>
        <mxCell id="5Ia9VmR4x7UAcifV3asM-2" value="" style="endArrow=classic;html=1;rounded=0;entryX=0.417;entryY=-0.067;entryDx=0;entryDy=0;entryPerimeter=0;fontColor=#0810e7;strokeColor=#1411d0;" edge="1" parent="1">
          <mxGeometry width="50" height="50" relative="1" as="geometry">
            <mxPoint x="560" y="4" as="sourcePoint" />
            <mxPoint x="560.04" y="59.98000000000002" as="targetPoint" />
          </mxGeometry>
        </mxCell>
        <mxCell id="5Ia9VmR4x7UAcifV3asM-3" value="&lt;font style=&quot;font-size: 16px;&quot;&gt;N,T,C,H,W&lt;/font&gt;" style="text;html=1;strokeColor=none;fillColor=none;align=center;verticalAlign=middle;whiteSpace=wrap;rounded=0;fontColor=#1825e2;" vertex="1" parent="1">
          <mxGeometry x="570" y="20" width="60" height="30" as="geometry" />
        </mxCell>
        <mxCell id="5Ia9VmR4x7UAcifV3asM-7" value="&lt;b style=&quot;--tw-border-spacing-x: 0; --tw-border-spacing-y: 0; --tw-translate-x: 0; --tw-translate-y: 0; --tw-rotate: 0; --tw-skew-x: 0; --tw-skew-y: 0; --tw-scale-x: 1; --tw-scale-y: 1; --tw-pan-x: ; --tw-pan-y: ; --tw-pinch-zoom: ; --tw-scroll-snap-strictness: proximity; --tw-ordinal: ; --tw-slashed-zero: ; --tw-numeric-figure: ; --tw-numeric-spacing: ; --tw-numeric-fraction: ; --tw-ring-inset: ; --tw-ring-offset-width: 0px; --tw-ring-offset-color: #fff; --tw-ring-color: rgb(59 130 246 / 0.5); --tw-ring-offset-shadow: 0 0 #0000; --tw-ring-shadow: 0 0 #0000; --tw-shadow: 0 0 #0000; --tw-shadow-colored: 0 0 #0000; --tw-blur: ; --tw-brightness: ; --tw-contrast: ; --tw-grayscale: ; --tw-hue-rotate: ; --tw-invert: ; --tw-saturate: ; --tw-sepia: ; --tw-drop-shadow: ; --tw-backdrop-blur: ; --tw-backdrop-brightness: ; --tw-backdrop-contrast: ; --tw-backdrop-grayscale: ; --tw-backdrop-hue-rotate: ; --tw-backdrop-invert: ; --tw-backdrop-opacity: ; --tw-backdrop-saturate: ; --tw-backdrop-sepia: ; border-color: var(--border-color); font-size: 16px;&quot;&gt;Feature t&lt;/b&gt;" style="rounded=0;whiteSpace=wrap;html=1;fontColor=#0C50ED;" vertex="1" parent="1">
          <mxGeometry x="500" y="150" width="120" height="60" as="geometry" />
        </mxCell>
        <mxCell id="5Ia9VmR4x7UAcifV3asM-8" value="&lt;b style=&quot;--tw-border-spacing-x: 0; --tw-border-spacing-y: 0; --tw-translate-x: 0; --tw-translate-y: 0; --tw-rotate: 0; --tw-skew-x: 0; --tw-skew-y: 0; --tw-scale-x: 1; --tw-scale-y: 1; --tw-pan-x: ; --tw-pan-y: ; --tw-pinch-zoom: ; --tw-scroll-snap-strictness: proximity; --tw-ordinal: ; --tw-slashed-zero: ; --tw-numeric-figure: ; --tw-numeric-spacing: ; --tw-numeric-fraction: ; --tw-ring-inset: ; --tw-ring-offset-width: 0px; --tw-ring-offset-color: #fff; --tw-ring-color: rgb(59 130 246 / 0.5); --tw-ring-offset-shadow: 0 0 #0000; --tw-ring-shadow: 0 0 #0000; --tw-shadow: 0 0 #0000; --tw-shadow-colored: 0 0 #0000; --tw-blur: ; --tw-brightness: ; --tw-contrast: ; --tw-grayscale: ; --tw-hue-rotate: ; --tw-invert: ; --tw-saturate: ; --tw-sepia: ; --tw-drop-shadow: ; --tw-backdrop-blur: ; --tw-backdrop-brightness: ; --tw-backdrop-contrast: ; --tw-backdrop-grayscale: ; --tw-backdrop-hue-rotate: ; --tw-backdrop-invert: ; --tw-backdrop-opacity: ; --tw-backdrop-saturate: ; --tw-backdrop-sepia: ; border-color: var(--border-color); font-size: 16px;&quot;&gt;Feature t+1&lt;/b&gt;" style="rounded=0;whiteSpace=wrap;html=1;fontColor=#0C50ED;" vertex="1" parent="1">
          <mxGeometry x="650" y="150" width="120" height="60" as="geometry" />
        </mxCell>
        <mxCell id="5Ia9VmR4x7UAcifV3asM-9" value="&lt;font style=&quot;font-size: 16px;&quot;&gt;&lt;b&gt;Feature t-1&lt;/b&gt;&lt;/font&gt;" style="rounded=0;whiteSpace=wrap;html=1;fontColor=#0C50ED;" vertex="1" parent="1">
          <mxGeometry x="350" y="150" width="120" height="60" as="geometry" />
        </mxCell>
        <mxCell id="5Ia9VmR4x7UAcifV3asM-10" value="&lt;font style=&quot;font-size: 16px;&quot;&gt;&lt;b&gt;3x3, 2D Conv&lt;/b&gt;&lt;/font&gt;" style="rounded=1;whiteSpace=wrap;html=1;fontColor=#0C50ED;" vertex="1" parent="1">
          <mxGeometry x="460" y="240" width="120" height="60" as="geometry" />
        </mxCell>
        <mxCell id="5Ia9VmR4x7UAcifV3asM-11" value="&lt;b style=&quot;--tw-border-spacing-x: 0; --tw-border-spacing-y: 0; --tw-translate-x: 0; --tw-translate-y: 0; --tw-rotate: 0; --tw-skew-x: 0; --tw-skew-y: 0; --tw-scale-x: 1; --tw-scale-y: 1; --tw-pan-x: ; --tw-pan-y: ; --tw-pinch-zoom: ; --tw-scroll-snap-strictness: proximity; --tw-ordinal: ; --tw-slashed-zero: ; --tw-numeric-figure: ; --tw-numeric-spacing: ; --tw-numeric-fraction: ; --tw-ring-inset: ; --tw-ring-offset-width: 0px; --tw-ring-offset-color: #fff; --tw-ring-color: rgb(59 130 246 / 0.5); --tw-ring-offset-shadow: 0 0 #0000; --tw-ring-shadow: 0 0 #0000; --tw-shadow: 0 0 #0000; --tw-shadow-colored: 0 0 #0000; --tw-blur: ; --tw-brightness: ; --tw-contrast: ; --tw-grayscale: ; --tw-hue-rotate: ; --tw-invert: ; --tw-saturate: ; --tw-sepia: ; --tw-drop-shadow: ; --tw-backdrop-blur: ; --tw-backdrop-brightness: ; --tw-backdrop-contrast: ; --tw-backdrop-grayscale: ; --tw-backdrop-hue-rotate: ; --tw-backdrop-invert: ; --tw-backdrop-opacity: ; --tw-backdrop-saturate: ; --tw-backdrop-sepia: ; border-color: var(--border-color); font-size: 16px;&quot;&gt;3x3, 2D Conv&lt;/b&gt;" style="rounded=1;whiteSpace=wrap;html=1;fontColor=#0C50ED;" vertex="1" parent="1">
          <mxGeometry x="630" y="240" width="120" height="60" as="geometry" />
        </mxCell>
        <mxCell id="5Ia9VmR4x7UAcifV3asM-12" value="&lt;font style=&quot;font-size: 16px;&quot;&gt;&lt;b&gt;Concatenate&lt;/b&gt;&lt;/font&gt;" style="rounded=1;whiteSpace=wrap;html=1;fontColor=#4D4D4D;" vertex="1" parent="1">
          <mxGeometry x="520" y="380" width="120" height="60" as="geometry" />
        </mxCell>
        <mxCell id="5Ia9VmR4x7UAcifV3asM-13" value="&lt;font style=&quot;font-size: 16px;&quot;&gt;&lt;b&gt;1x1, 2D Conv&lt;/b&gt;&lt;/font&gt;" style="rounded=1;whiteSpace=wrap;html=1;fontColor=#0C50ED;" vertex="1" parent="1">
          <mxGeometry x="480" y="460" width="120" height="60" as="geometry" />
        </mxCell>
        <mxCell id="5Ia9VmR4x7UAcifV3asM-14" value="" style="endArrow=classic;html=1;rounded=0;entryX=0.417;entryY=-0.067;entryDx=0;entryDy=0;entryPerimeter=0;fontColor=#0810e7;strokeColor=#1b18f2;" edge="1" parent="1">
          <mxGeometry width="50" height="50" relative="1" as="geometry">
            <mxPoint x="560" y="120" as="sourcePoint" />
            <mxPoint x="559.54" y="155.98000000000002" as="targetPoint" />
          </mxGeometry>
        </mxCell>
        <mxCell id="5Ia9VmR4x7UAcifV3asM-15" value="" style="endArrow=classic;html=1;rounded=0;fontColor=#0810e7;entryX=0.5;entryY=0;entryDx=0;entryDy=0;strokeColor=#162dda;" edge="1" parent="1" target="5Ia9VmR4x7UAcifV3asM-8">
          <mxGeometry width="50" height="50" relative="1" as="geometry">
            <mxPoint x="624" y="90.02" as="sourcePoint" />
            <mxPoint x="690" y="60" as="targetPoint" />
            <Array as="points">
              <mxPoint x="710" y="90" />
            </Array>
          </mxGeometry>
        </mxCell>
        <mxCell id="5Ia9VmR4x7UAcifV3asM-17" value="" style="endArrow=classic;html=1;rounded=0;fontColor=#0810e7;entryX=0.5;entryY=0;entryDx=0;entryDy=0;strokeColor=#162dda;exitX=0;exitY=0.5;exitDx=0;exitDy=0;" edge="1" parent="1" source="5Ia9VmR4x7UAcifV3asM-1">
          <mxGeometry width="50" height="50" relative="1" as="geometry">
            <mxPoint x="340" y="90.02" as="sourcePoint" />
            <mxPoint x="426" y="150" as="targetPoint" />
            <Array as="points">
              <mxPoint x="426" y="90" />
            </Array>
          </mxGeometry>
        </mxCell>
        <mxCell id="5Ia9VmR4x7UAcifV3asM-20" value="" style="endArrow=classic;html=1;rounded=0;entryX=0.417;entryY=-0.067;entryDx=0;entryDy=0;entryPerimeter=0;fontColor=#0810e7;strokeColor=#1b18f2;" edge="1" parent="1">
          <mxGeometry width="50" height="50" relative="1" as="geometry">
            <mxPoint x="541" y="210" as="sourcePoint" />
            <mxPoint x="540.54" y="239.98000000000002" as="targetPoint" />
          </mxGeometry>
        </mxCell>
        <mxCell id="5Ia9VmR4x7UAcifV3asM-21" value="" style="endArrow=classic;html=1;rounded=0;fontColor=#0810e7;strokeColor=#1b18f2;" edge="1" parent="1">
          <mxGeometry width="50" height="50" relative="1" as="geometry">
            <mxPoint x="410" y="210" as="sourcePoint" />
            <mxPoint x="410" y="340" as="targetPoint" />
          </mxGeometry>
        </mxCell>
        <mxCell id="5Ia9VmR4x7UAcifV3asM-22" value="" style="endArrow=classic;html=1;rounded=0;entryX=1;entryY=0.5;entryDx=0;entryDy=0;fontColor=#0810e7;strokeColor=#1b18f2;exitX=0.5;exitY=1;exitDx=0;exitDy=0;" edge="1" parent="1" source="5Ia9VmR4x7UAcifV3asM-10" target="5Ia9VmR4x7UAcifV3asM-28">
          <mxGeometry width="50" height="50" relative="1" as="geometry">
            <mxPoint x="522" y="299" as="sourcePoint" />
            <mxPoint x="521.54" y="334.98" as="targetPoint" />
            <Array as="points">
              <mxPoint x="520" y="355" />
            </Array>
          </mxGeometry>
        </mxCell>
        <mxCell id="5Ia9VmR4x7UAcifV3asM-23" value="" style="endArrow=classic;html=1;rounded=0;fontColor=#0810e7;strokeColor=#1b18f2;" edge="1" parent="1">
          <mxGeometry width="50" height="50" relative="1" as="geometry">
            <mxPoint x="601" y="209" as="sourcePoint" />
            <mxPoint x="600" y="320" as="targetPoint" />
          </mxGeometry>
        </mxCell>
        <mxCell id="5Ia9VmR4x7UAcifV3asM-24" value="" style="endArrow=classic;html=1;rounded=0;entryX=0.417;entryY=-0.067;entryDx=0;entryDy=0;entryPerimeter=0;fontColor=#0810e7;strokeColor=#1b18f2;" edge="1" parent="1">
          <mxGeometry width="50" height="50" relative="1" as="geometry">
            <mxPoint x="698" y="210" as="sourcePoint" />
            <mxPoint x="697.54" y="239.98000000000002" as="targetPoint" />
          </mxGeometry>
        </mxCell>
        <mxCell id="5Ia9VmR4x7UAcifV3asM-25" value="&lt;font style=&quot;font-size: 16px;&quot;&gt;-&lt;/font&gt;" style="ellipse;whiteSpace=wrap;html=1;verticalAlign=middle;align=center;fontColor=#2C2CDE;" vertex="1" parent="1">
          <mxGeometry x="585" y="320" width="30" height="30" as="geometry" />
        </mxCell>
        <mxCell id="5Ia9VmR4x7UAcifV3asM-28" value="&lt;font style=&quot;font-size: 16px;&quot;&gt;-&lt;/font&gt;" style="ellipse;whiteSpace=wrap;html=1;verticalAlign=middle;align=center;fontColor=#2C2CDE;" vertex="1" parent="1">
          <mxGeometry x="390" y="340" width="35" height="30" as="geometry" />
        </mxCell>
        <mxCell id="5Ia9VmR4x7UAcifV3asM-29" value="" style="endArrow=classic;html=1;rounded=0;entryX=1;entryY=0.5;entryDx=0;entryDy=0;fontColor=#0810e7;strokeColor=#1b18f2;exitX=0.5;exitY=1;exitDx=0;exitDy=0;" edge="1" parent="1" source="5Ia9VmR4x7UAcifV3asM-11" target="5Ia9VmR4x7UAcifV3asM-25">
          <mxGeometry width="50" height="50" relative="1" as="geometry">
            <mxPoint x="640" y="297" as="sourcePoint" />
            <mxPoint x="639.54" y="332.98" as="targetPoint" />
            <Array as="points">
              <mxPoint x="690" y="335" />
            </Array>
          </mxGeometry>
        </mxCell>
        <mxCell id="5Ia9VmR4x7UAcifV3asM-30" value="" style="endArrow=classic;html=1;rounded=0;entryX=0.417;entryY=-0.067;entryDx=0;entryDy=0;entryPerimeter=0;fontColor=#0810e7;strokeColor=#1b18f2;" edge="1" parent="1">
          <mxGeometry width="50" height="50" relative="1" as="geometry">
            <mxPoint x="600" y="350" as="sourcePoint" />
            <mxPoint x="599.54" y="379.98" as="targetPoint" />
          </mxGeometry>
        </mxCell>
        <mxCell id="5Ia9VmR4x7UAcifV3asM-31" value="" style="endArrow=classic;html=1;rounded=0;entryX=0.417;entryY=-0.067;entryDx=0;entryDy=0;entryPerimeter=0;fontColor=#0810e7;strokeColor=#1b18f2;" edge="1" parent="1">
          <mxGeometry width="50" height="50" relative="1" as="geometry">
            <mxPoint x="562" y="440" as="sourcePoint" />
            <mxPoint x="561.54" y="460.98" as="targetPoint" />
          </mxGeometry>
        </mxCell>
        <mxCell id="5Ia9VmR4x7UAcifV3asM-34" value="" style="endArrow=classic;html=1;rounded=0;entryX=0;entryY=0.5;entryDx=0;entryDy=0;fontColor=#0810e7;strokeColor=#1b18f2;exitX=0.5;exitY=1;exitDx=0;exitDy=0;" edge="1" parent="1" source="5Ia9VmR4x7UAcifV3asM-28" target="5Ia9VmR4x7UAcifV3asM-12">
          <mxGeometry width="50" height="50" relative="1" as="geometry">
            <mxPoint x="410" y="370" as="sourcePoint" />
            <mxPoint x="663.54" y="516.98" as="targetPoint" />
            <Array as="points">
              <mxPoint x="408" y="410" />
            </Array>
          </mxGeometry>
        </mxCell>
        <mxCell id="5Ia9VmR4x7UAcifV3asM-35" value="" style="endArrow=classic;html=1;rounded=0;entryX=0.417;entryY=-0.067;entryDx=0;entryDy=0;entryPerimeter=0;fontColor=#0810e7;strokeColor=#1b18f2;" edge="1" parent="1">
          <mxGeometry width="50" height="50" relative="1" as="geometry">
            <mxPoint x="537" y="519" as="sourcePoint" />
            <mxPoint x="536.54" y="554.98" as="targetPoint" />
          </mxGeometry>
        </mxCell>
        <mxCell id="5Ia9VmR4x7UAcifV3asM-37" value="&lt;font style=&quot;font-size: 16px;&quot;&gt;N,T,C,H,W&lt;/font&gt;" style="text;html=1;strokeColor=none;fillColor=none;align=center;verticalAlign=middle;whiteSpace=wrap;rounded=0;fontColor=#1825e2;" vertex="1" parent="1">
          <mxGeometry x="550" y="520" width="60" height="30" as="geometry" />
        </mxCell>
        <mxCell id="5Ia9VmR4x7UAcifV3asM-40" value="&lt;font style=&quot;font-size: 16px;&quot;&gt;N,C/16,H,W&lt;/font&gt;" style="text;html=1;strokeColor=none;fillColor=none;align=center;verticalAlign=middle;whiteSpace=wrap;rounded=0;fontColor=#1825e2;" vertex="1" parent="1">
          <mxGeometry x="673" y="50" width="60" height="30" as="geometry" />
        </mxCell>
        <mxCell id="5Ia9VmR4x7UAcifV3asM-41" value="&lt;font style=&quot;font-size: 16px;&quot;&gt;N,C/16,H,W&lt;/font&gt;" style="text;html=1;strokeColor=none;fillColor=none;align=center;verticalAlign=middle;whiteSpace=wrap;rounded=0;fontColor=#1825e2;" vertex="1" parent="1">
          <mxGeometry x="404" y="50" width="60" height="30" as="geometry" />
        </mxCell>
        <mxCell id="5Ia9VmR4x7UAcifV3asM-42" value="&lt;font style=&quot;font-size: 16px;&quot;&gt;N,C/16,H,W&lt;/font&gt;" style="text;html=1;strokeColor=none;fillColor=none;align=center;verticalAlign=middle;whiteSpace=wrap;rounded=0;fontColor=#1825e2;" vertex="1" parent="1">
          <mxGeometry x="430" y="370" width="60" height="30" as="geometry" />
        </mxCell>
        <mxCell id="5Ia9VmR4x7UAcifV3asM-43" value="&lt;font style=&quot;font-size: 16px;&quot;&gt;N,C/16,H,W&lt;/font&gt;" style="text;html=1;strokeColor=none;fillColor=none;align=center;verticalAlign=middle;whiteSpace=wrap;rounded=0;fontColor=#1825e2;" vertex="1" parent="1">
          <mxGeometry x="629" y="346" width="60" height="30" as="geometry" />
        </mxCell>
        <mxCell id="5Ia9VmR4x7UAcifV3asM-44" value="&lt;font size=&quot;1&quot; style=&quot;&quot;&gt;&lt;b style=&quot;font-size: 19px;&quot;&gt;...&lt;/b&gt;&lt;/font&gt;" style="text;html=1;strokeColor=none;fillColor=none;align=center;verticalAlign=middle;whiteSpace=wrap;rounded=0;fontColor=#1825e2;" vertex="1" parent="1">
          <mxGeometry x="780" y="165" width="4" height="30" as="geometry" />
        </mxCell>
      </root>
    </mxGraphModel>
  </diagram>
</mxfile>
